<?xml version="1.0" encoding="UTF-8" standalone="no"?>
<svg
   xmlns:dc="http://purl.org/dc/elements/1.1/"
   xmlns:cc="http://creativecommons.org/ns#"
   xmlns:rdf="http://www.w3.org/1999/02/22-rdf-syntax-ns#"
   xmlns:svg="http://www.w3.org/2000/svg"
   xmlns="http://www.w3.org/2000/svg"
   xmlns:sodipodi="http://sodipodi.sourceforge.net/DTD/sodipodi-0.dtd"
   xmlns:inkscape="http://www.inkscape.org/namespaces/inkscape"
   inkscape:version="1.0 (4035a4fb49, 2020-05-01)"
   sodipodi:docname="LogoOnDark.svg"
   id="svg314"
   version="1.1"
   width="138"
   viewBox="0 0 138 44"
   height="44">
  <metadata
     id="metadata320">
    <rdf:RDF>
      <cc:Work
         rdf:about="">
        <dc:format>image/svg+xml</dc:format>
        <dc:type
           rdf:resource="http://purl.org/dc/dcmitype/StillImage" />
      </cc:Work>
    </rdf:RDF>
  </metadata>
  <defs
     id="defs318" />
  <sodipodi:namedview
     inkscape:current-layer="svg314"
     inkscape:window-maximized="0"
     inkscape:window-y="0"
     inkscape:window-x="0"
     inkscape:cy="21.771523"
     inkscape:cx="69"
     inkscape:zoom="8.7536232"
     showgrid="false"
     id="namedview316"
     inkscape:window-height="846"
     inkscape:window-width="1659"
     inkscape:pageshadow="2"
     inkscape:pageopacity="0"
     guidetolerance="10"
     gridtolerance="10"
     objecttolerance="10"
     borderopacity="1"
     bordercolor="#666666"
     pagecolor="#ffffff" />
  <linearGradient
     y2="65.534668%"
     y1="7.080078%"
     x2="26.123047%"
     x1="113.842773%"
     id="a">
    <stop
       id="stop264"
       stop-color="#fff"
       offset="0" />
    <stop
       id="stop266"
       stop-opacity="0"
       stop-color="#fff"
       offset="1" />
  </linearGradient>
  <radialGradient
     r="50.806452%"
     gradientTransform="matrix(0 .984127 -1 0 1 .007936)"
     cy="50%"
     cx="50%"
     id="b">
    <stop
       id="stop269"
       stop-color="#eee"
       offset="0" />
    <stop
       id="stop271"
       stop-opacity="0"
       stop-color="#fff"
       offset="1" />
  </radialGradient>
  <g
     id="g312"
     fill-rule="evenodd"
     fill="none">
    <g
       id="g278"
       transform="translate(54.855 6.092)"
       fill-rule="nonzero">
      <path
         d="m 61.429688,6.0917969 c -1.102007,0 -2.061903,0.1765815 -2.878907,0.53125 -0.817004,0.3546684 -1.501731,0.8490853 -2.052734,1.4824219 -0.551003,0.6333365 -0.96204,1.3911467 -1.234375,2.2714842 -0.272335,0.880338 -0.408203,1.85201 -0.408203,2.916016 0,1.038672 0.132436,1.991704 0.398437,2.859375 0.266002,0.867671 0.665263,1.611752 1.197266,2.232422 0.532003,0.620669 1.203001,1.101357 2.013672,1.443359 0.81067,0.342002 1.767135,0.513672 2.86914,0.513672 0.975339,0 1.829783,-0.135869 2.564454,-0.408203 0.658573,-0.244127 1.216336,-0.573471 1.68164,-0.980469 -0.208151,-0.303722 -0.408126,-0.612861 -0.617187,-0.916016 -0.524981,-0.761262 -1.03362,-1.466684 -1.541016,-2.18164 -0.339392,0.893909 -1.023006,1.351562 -2.068359,1.351562 -0.392669,0 -0.751218,-0.06965 -1.074219,-0.208984 -0.323002,-0.139334 -0.601603,-0.366926 -0.835938,-0.683594 -0.194224,-0.262466 -0.34263,-0.608519 -0.46289,-1.005859 h -0.546875 c -1.130903,0 -1.130903,-1.142578 0,-1.142578 h 0.324218 c -0.02859,-0.299007 -0.04492,-0.619705 -0.04492,-0.96875 0,-1.949627 0.473311,-3.175711 1.414062,-3.6894535 0.02091,-0.3608938 0.33894,-0.4340662 0.673828,-0.2285156 0.163557,-0.029387 0.33082,-0.052734 0.513672,-0.052734 0.354669,0 0.658775,0.054442 0.912109,0.1621094 0.253335,0.1076672 0.465718,0.2538324 0.636719,0.4375 0.171001,0.1836671 0.30687,0.4009621 0.408203,0.6542971 0.101334,0.253334 0.184714,0.527024 0.248047,0.818359 l 3.628907,-0.417969 C 66.895101,9.3481874 66.295235,8.1656083 65.351562,7.3359375 64.407892,6.5062667 63.101695,6.0917969 61.429688,6.0917969 Z m 7.65625,0.3417969 v 7.6230472 c 1.172522,-0.04923 2.215505,-0.0879 3.648437,-0.16211 V 6.4335938 Z m 11.324218,0 v 7.0097652 c 2.089955,-0.147023 2.718462,-0.198514 3.646485,-0.269531 V 6.4335938 Z m 6.154297,0 v 6.5156252 c -0.822385,0.04265 -0.176491,0.009 3.363281,-0.197266 v -0.257812 l 0.08203,0.251953 c 0.663696,-0.03873 -0.34108,0.02002 0.597656,-0.03516 0.08335,-0.0011 0.166656,-0.0028 0.25,-0.0039 0.452767,-0.616442 0.907891,-1.231666 1.361328,-1.847656 L 90.802734,6.4335938 Z m 10.501953,0 c -0.0022,0.00184 -0.0036,0.00402 -0.0059,0.00586 -0.06071,0.097428 -0.114369,0.1979965 -0.146485,0.3085938 -0.33862,1.1661511 0.449217,2.9660983 0.796876,3.8261721 0.317532,0.785544 0.682408,1.550974 1.054687,2.3125 0.0097,3.49e-4 0.01764,0.0016 0.02734,0.002 0.687065,0.0241 1.373601,0.0267 2.060551,0.03906 V 6.4335938 Z m 10.037114,0 -2.26368,6.5214842 c 0.63335,-0.0036 1.26686,-0.0017 1.90039,-0.0098 0.48119,-0.01878 0.96211,-0.01631 1.44336,-0.02344 l 0.9336,-3.1054688 0.91601,3.0839848 c 0.75824,0.0023 1.51711,0.0081 2.27539,0.01172 0.20251,9.21e-4 0.40496,-0.0013 0.60743,-0.002 0.0645,-0.107617 0.10508,-0.18003 0.17187,-0.291015 0.0741,-0.12307 0.12396,-0.20234 0.19531,-0.320313 l -2.03711,-5.8652342 z m 7.67578,0 V 9.53125 h 0.22656 c 0.65677,-1.0238731 1.37426,-2.0878465 2.0625,-3.0976562 z m 4.21289,0 c -0.10207,0.1531963 -0.24099,0.356097 -0.28907,0.4433593 -0.0521,0.094592 -0.0971,0.2005987 -0.0977,0.3085938 -7e-4,0.1192081 0.062,0.2288444 0.0937,0.34375 0.56391,1.7333173 1.19566,3.4545301 1.6289,5.2285151 0.24418,0.175694 0.29562,0.443523 0.15626,0.65625 0.20231,0.959472 0.33987,1.932444 0.48437,2.902344 0.27252,1.829279 0.34665,2.604386 0.43359,3.683594 h 0.93946 V 9.53125 h 3.91406 V 6.4335938 Z m 8.95312,0 V 20 H 137.75 l 0.30469,-3.001953 H 131.5 v -2.394531 h 5.77539 V 11.601562 H 131.5 V 9.4355469 h 6.1543 V 6.4335938 Z m -10.36133,1.2734374 c -0.40133,0.5928521 -0.80079,1.2033433 -1.20703,1.8242188 h 1.79688 c -0.2007,-0.6068721 -0.40609,-1.2127691 -0.58985,-1.8242188 z M 95.884766,8.7617188 94.619141,12.691406 c 0.920219,0.02687 1.820683,0.06752 2.705078,0.119141 l 0.05273,-0.162109 C 97.105459,12.078008 96.845552,11.501628 96.619141,10.912109 96.29464,10.067191 96.03507,9.4021874 95.884766,8.7617188 Z m 22.808594,2.4023432 v 1.34961 c 0.13297,0.0065 0.26538,0.01524 0.39844,0.02539 -0.12391,-0.460929 -0.25548,-0.919556 -0.39844,-1.375 z m -26.044922,1.03711 c -0.119169,0.16205 -0.238296,0.324244 -0.357422,0.486328 0.170559,-0.0023 0.341159,-0.0035 0.511718,-0.0059 z m 4.765624,0.523437 v 0.0918 c 0.01539,8.88e-4 0.03152,0.0011 0.04688,0.002 -0.01515,-0.0315 -0.03179,-0.06222 -0.04688,-0.09375 z m -10.679687,0.230469 c -0.03003,1.68e-4 -0.123262,0.0045 -0.169922,0.0059 v 0.02148 c 0.123256,-0.01412 0.25773,-0.02783 0.169922,-0.02734 z m 31.958985,0.697266 V 20 h 1.5625 c -0.0796,-0.979874 -0.15303,-1.726342 -0.41406,-3.496094 -0.13818,-0.936788 -0.26775,-1.876249 -0.46289,-2.802734 -0.22841,-0.01798 -0.45677,-0.03936 -0.68555,-0.04883 z m -25.527344,0.166015 c -0.574241,0.0045 -1.148455,0.01338 -1.722657,0.02149 -0.25087,0.341412 -0.502856,0.682157 -0.753906,1.023437 L 92.341797,20 h 2.660156 l 1.958985,-6.064453 c -0.895372,-0.05318 -1.793135,-0.09749 -2.705079,-0.115235 l -0.546875,1.695313 z m -3.238282,0.07617 c -3.367331,0.195923 -4.202964,0.241681 -3.363281,0.199219 v 0.0098 c 0.299877,-0.01034 0.461503,-0.01123 0,0.03125 v 4.371093 c 1.128188,-1.506301 2.248737,-3.017016 3.363281,-4.533203 z m 7.486328,0.06641 V 20 h 3.439458 v -0.726562 c -0.920778,-1.643803 -1.816111,-3.2481 -2.673832,-4.986329 -0.04818,-0.09765 -0.09615,-0.195372 -0.144532,-0.292968 -0.206314,-0.01145 -0.414739,-0.02146 -0.621094,-0.0332 z m 1.923829,0.08008 c 0.50671,1.011998 1.006549,1.96062 1.515629,2.888672 v -2.859376 c -0.50518,-0.009 -1.010417,-0.01847 -1.515629,-0.0293 z m 11.033199,0.0039 0.13282,0.445312 h -2.79297 l 0.12695,-0.419922 c -0.36064,0.0072 -0.72133,0.0035 -1.08203,0.01758 -0.7716,0.0097 -1.54292,0.0069 -2.31445,0.0098 l -1.98243,5.712891 c 0.0366,0.06551 0.0686,0.123379 0.10547,0.189453 h 3.49414 l 0.75977,-2.603516 h 3.49805 c 0.55002,-0.991137 1.18712,-2.094909 1.92382,-3.341796 -0.62326,-0.003 -1.24611,-0.0068 -1.86914,-0.0098 z m 3.20313,0.0078 c -0.7103,1.201464 -1.40674,2.410782 -2.0918,3.626954 L 112.17578,20 h 3.78125 l -2.06445,-5.947266 c -0.10612,3.01e-4 -0.21224,-3.58e-4 -0.31836,0 z m -29.517579,0.267578 c -0.948954,0.07243 -1.537114,0.121315 -3.646485,0.269532 V 20 h 3.646485 z m -11.322266,0.71875 c -1.428737,0.07371 -2.476551,0.111258 -3.648437,0.160157 V 20 h 9.328124 l 0.324219,-3.097656 h -6.003906 z m -5.412109,0.238282 c -0.172172,0.0054 -0.545871,0.02765 -0.69336,0.03125 -0.729578,0.01779 -1.459549,0.01219 -2.189453,0.0098 0.446721,0.62566 0.871395,1.209862 1.457031,2.058594 0.15958,0.231271 0.311583,0.46762 0.470704,0.699219 0.20286,-0.292243 0.375866,-0.605899 0.515624,-0.945313 0.236936,-0.575412 0.373365,-1.197707 0.439454,-1.853515 z m 22.605468,0.611328 c -0.964339,1.307871 -1.927422,2.615702 -2.904296,3.914062 -0.143671,0.198002 -0.0117,0.01697 -0.142579,0.197266 h 3.046875 z"
         transform="translate(-54.855,-6.092)"
         id="path274" />
      <path
         d="m 61.429688,25.091797 c -1.102007,0 -2.061903,0.176581 -2.878907,0.53125 -0.817004,0.354668 -1.501731,0.849085 -2.052734,1.482422 -0.551003,0.633336 -0.96204,1.391146 -1.234375,2.271484 -0.272335,0.880338 -0.408203,1.85201 -0.408203,2.916016 0,1.038672 0.132436,1.991704 0.398437,2.859375 0.266002,0.867671 0.665263,1.611752 1.197266,2.232422 0.532003,0.620669 1.203001,1.101357 2.013672,1.443359 0.81067,0.342002 1.767135,0.513672 2.86914,0.513672 0.975339,0 1.829783,-0.135869 2.564454,-0.408203 0.734669,-0.272335 1.349746,-0.646092 1.84375,-1.121094 0.494001,-0.475002 0.874623,-1.035637 1.140624,-1.681641 0.266003,-0.646003 0.423943,-1.342506 0.47461,-2.089843 h -3.72461 c -0.189999,1.444007 -0.94929,2.166015 -2.279296,2.166015 -0.392669,0 -0.751218,-0.06965 -1.074219,-0.208984 -0.323002,-0.139334 -0.601603,-0.366926 -0.835938,-0.683594 -0.234334,-0.316668 -0.414348,-0.731138 -0.541015,-1.244141 -0.126668,-0.513002 -0.189453,-1.138376 -0.189453,-1.873046 0,-0.275313 0.01443,-0.526757 0.0332,-0.773438 -0.509715,-0.236402 -0.470856,-0.823322 0.136718,-0.990234 0.329656,-1.4694 1.138784,-2.207032 2.431641,-2.207032 0.354669,2e-6 0.658776,0.05444 0.912109,0.16211 0.253335,0.107667 0.465718,0.253832 0.636719,0.4375 0.171001,0.183667 0.30687,0.400962 0.408203,0.654297 0.101334,0.253334 0.184714,0.527024 0.248047,0.818359 l 3.628907,-0.417969 c -0.253336,-1.532674 -0.853204,-2.715251 -1.796876,-3.544921 -0.94367,-0.829672 -2.249866,-1.244141 -3.921874,-1.244141 z m 28.099609,0 c -1.076672,0 -2.033137,0.168238 -2.869141,0.503906 -0.836004,0.335668 -1.539372,0.812924 -2.109375,1.433594 -0.468283,0.509908 -0.838574,1.115248 -1.123047,1.804687 2.218991,-0.07941 3.217074,-0.138726 4.167969,-0.15625 0.09372,-0.0017 0.210601,0.0029 0.304688,0.002 0.427331,-0.291897 0.951677,-0.453125 1.591797,-0.453126 0.698785,2e-6 1.263121,0.181446 1.705078,0.529297 0.136082,0.0053 0.192479,0.0058 0.339843,0.01172 0.987609,0.03955 1.974026,0.117655 2.960938,0.171875 0.380095,0.02088 0.76018,0.04245 1.140625,0.05859 -0.287691,-0.778012 -0.682029,-1.450099 -1.197266,-2.005859 -0.563669,-0.608004 -1.25674,-1.076915 -2.080078,-1.40625 -0.823337,-0.329337 -1.768026,-0.494141 -2.832031,-0.494141 z m 20.880863,0 c -1.10201,0 -2.06191,0.176581 -2.87891,0.53125 -0.16351,0.07098 -0.3178,0.152206 -0.4707,0.234375 -0.0789,0.137581 -0.14806,0.280517 -0.23047,0.416016 -0.46587,0.765921 -1.03766,1.46238 -1.55664,2.193359 -0.17955,0.02176 -0.46774,0.06926 -0.68555,0.03711 -0.1246,0.268482 -0.23889,0.545476 -0.33203,0.841797 0.38849,0.0075 0.56682,0.014 1.47461,0.01758 0.55366,0.0022 1.10682,-0.0171 1.66015,0.002 0.28635,0.0098 0.56972,0.02979 0.85352,0.04883 0.43055,-0.781918 1.10767,-1.187499 2.05078,-1.1875 0.35467,2e-6 0.65878,0.05444 0.91211,0.16211 0.25334,0.107667 0.46572,0.253832 0.63672,0.4375 0.171,0.183667 0.30687,0.400962 0.4082,0.654297 0.0542,0.135452 0.0895,0.291186 0.13282,0.4375 0.41131,0.07425 0.82024,0.155984 1.22656,0.251953 l 2.51758,-0.289063 c -0.25334,-1.532674 -0.85125,-2.715251 -1.79493,-3.544921 -0.94367,-0.829672 -2.25182,-1.244141 -3.92382,-1.244141 z m -41.324222,0.341797 v 4.957031 c 0.04634,-0.0023 0.08814,-0.0014 0.134765,-0.0039 1.289446,-0.06815 2.236809,-0.157328 3.121094,-0.253907 -0.25591,-0.457357 -0.515222,-0.930285 -1.064453,-1.914062 -0.579614,-0.993699 -1.099629,-1.88433 -1.626953,-2.785156 z m 1.888671,0 c 0.420507,0.721541 0.825991,1.415207 1.289063,2.208984 0.243695,0.436434 0.308317,0.553904 0.470703,0.847656 v -3.05664 z m 6.167969,0 v 4.091797 c 0.510647,-0.06768 0.791626,-0.114782 1.419922,-0.189453 0.117631,-0.01398 0.235772,-0.02404 0.353516,-0.03711 0.214454,-0.303292 0.43536,-0.601929 0.648437,-0.90625 0.693526,-0.990509 0.789089,-1.137204 1.224609,-1.763672 v -1.195312 z m 21.03125,0 v 3.77539 c 0.193781,0.02517 0.387967,0.04617 0.582031,0.06836 0.448784,0.05131 0.896687,0.09925 1.345701,0.148437 0.57556,0.07501 1.14805,0.04107 1.72071,-0.0059 v -3.986328 z m 19.892582,0 v 5.804687 c 1.21305,0.22015 1.22454,0.202342 2.54297,0.308594 0.29977,0.01501 0.60033,0.03672 0.90039,0.04492 0.0463,0.0013 0.18555,-7.73e-4 0.29882,-0.0039 -0.008,-0.01838 -0.009,-0.01755 -0.0176,-0.03711 -0.12133,-0.265762 -0.25251,-0.526928 -0.35938,-0.798828 -0.40404,-1.028044 -0.65946,-2.108521 -0.75586,-3.208984 -0.29056,-2.627327 -0.0184,3.15e-4 -0.16992,-1.841797 -0.009,-0.113178 -0.0178,-0.174727 -0.0273,-0.267578 z m 3.55859,0 c 0.005,0.05371 0.0109,0.09477 0.0156,0.152344 0.14925,1.813183 -0.0955,-0.544598 0.16993,1.830078 0.0285,0.342738 0.0797,0.682594 0.14257,1.019531 h 5.82227 v -3.001953 z m -40.835938,3.195312 c -0.152001,0.217322 -0.128415,0.187216 -0.296874,0.427735 -0.0201,0.0287 -0.04044,0.05725 -0.06055,0.08594 0.119223,-0.01173 0.238222,-0.02515 0.357421,-0.03711 z m 6.189454,1.214844 c -0.821023,0.0246 -1.603114,0.06217 -3.447266,0.126953 -0.161501,0.01669 -0.322838,0.03451 -0.484375,0.05078 -0.160615,0.693295 -0.244141,1.442464 -0.244141,2.251954 0,1.089337 0.146166,2.071308 0.4375,2.945312 0.291335,0.874004 0.719534,1.614653 1.283204,2.222656 0.563669,0.608003 1.25674,1.076915 2.080078,1.40625 0.823337,0.329335 1.766072,0.494141 2.830078,0.494141 1.076672,0 2.033136,-0.168238 2.86914,-0.503906 0.836004,-0.335669 1.539372,-0.812924 2.109375,-1.433594 0.570003,-0.62067 1.003113,-1.375048 1.300782,-2.261719 0.297668,-0.886671 0.447265,-1.880416 0.447265,-2.982422 0,-0.71536 -0.06968,-1.379459 -0.195312,-2.001953 -0.511164,-0.02427 -1.022219,-0.05 -1.533203,-0.07813 -0.803997,-0.04424 -1.607847,-0.100278 -2.41211,-0.142578 0.235235,0.607618 0.359375,1.361163 0.359375,2.279297 0,1.304673 -0.237888,2.296939 -0.71289,2.974609 -0.475003,0.67767 -1.19849,1.015625 -2.173828,1.015625 -0.97534,0 -1.704212,-0.337955 -2.185547,-1.015625 -0.481336,-0.67767 -0.722657,-1.669936 -0.722657,-2.974609 0,-0.962589 0.132517,-1.751771 0.394532,-2.373047 z m -6.189454,0.410156 c -0.41546,0.04191 -0.83069,0.08627 -1.246093,0.128906 -0.616197,0.869226 -1.228168,1.741584 -1.859375,2.59961 -0.223657,0.304025 -0.389369,0.552983 -0.541016,0.769531 V 39 h 3.646484 z m 17.384766,0.105469 V 39 h 3.648442 v -8.435547 c -0.61355,0.04662 -1.22698,0.07646 -1.843754,-0.0039 -0.452391,-0.04958 -0.905306,-0.09642 -1.357422,-0.148438 -0.149109,-0.01716 -0.298366,-0.03322 -0.447266,-0.05273 z m 5.814452,0.126953 c -0.0975,0.570779 -0.15234,1.170128 -0.15234,1.806641 0,1.038672 0.13243,1.991704 0.39844,2.859375 0.266,0.867671 0.66526,1.611752 1.19726,2.232422 0.532,0.620669 1.203,1.101357 2.01367,1.443359 0.81067,0.342002 1.76714,0.513672 2.86914,0.513672 0.97534,0 1.82979,-0.135869 2.56446,-0.408203 0.73467,-0.272335 1.34974,-0.646092 1.84375,-1.121094 0.494,-0.475002 0.87462,-1.035637 1.14062,-1.681641 0.266,-0.646003 0.42394,-1.342506 0.47461,-2.089843 h -3.72461 c -0.19,1.444007 -0.94929,2.166015 -2.2793,2.166015 -0.39266,0 -0.75121,-0.06965 -1.07421,-0.208984 -0.32301,-0.139334 -0.60161,-0.366926 -0.83594,-0.683594 -0.23434,-0.316668 -0.41435,-0.731138 -0.54102,-1.244141 -0.12666,-0.513002 -0.18945,-1.138376 -0.18945,-1.873046 0,-0.631355 0.0517,-1.181326 0.15039,-1.66211 -0.15178,-0.0081 -0.3029,-0.02212 -0.45508,-0.02734 -0.55538,-0.01905 -1.11227,2.94e-4 -1.66797,-0.002 -1.06926,-0.0043 -1.14245,-0.0079 -1.73242,-0.01953 z M 78.011719,30.5625 c -1.522697,0.191474 -2.749494,0.364458 -3.794922,0.505859 0.119079,0.19698 0.159224,0.276558 0.320312,0.539063 0.123683,0.201551 0.241377,0.407213 0.386719,0.59375 0.04307,0.05528 0.107385,0.09456 0.140625,0.15625 0.09334,0.173267 0.157788,0.360556 0.236328,0.541016 0.0057,0.0094 0.29376,0.483674 0.3125,0.521484 0.03529,0.07121 0.05439,0.149708 0.08594,0.222656 h 0.01172 c 0.226841,-0.530213 0.73192,-0.900089 1.074218,-1.367187 0.415157,-0.566523 0.817212,-1.142319 1.226563,-1.712891 z m 44.601561,0.03906 c 0.0724,0.15904 0.14556,0.317713 0.21875,0.476563 0.35404,0.76838 0.23592,0.517079 0.59961,1.259766 0.0141,0.03125 0.0338,0.06133 0.0508,0.0918 0.0666,-0.04356 0.20351,-0.0095 0.29297,-0.0293 0.0904,-0.02001 0.18689,-0.102213 0.27149,-0.06445 0.85223,0.38058 0.71465,0.374862 0.84374,1.078124 0.0297,0.15464 0.0317,0.149367 0.0391,0.189454 h 2.46484 v -3.001954 z m -49.636718,0.615235 c -1.041366,0.121987 -2.145673,0.228632 -3.740234,0.3125 -0.05222,0.0027 -0.09856,0.0014 -0.15039,0.0039 V 39 h 3.648437 v -5.357422 h 1.679687 c -0.07003,-0.113791 -0.137091,-0.228641 -0.1875,-0.353516 -0.04918,-0.321877 0.01713,-0.104622 -0.255859,-0.458984 -0.1538,-0.199644 -0.280357,-0.41993 -0.412109,-0.634766 -0.292319,-0.476652 -0.406174,-0.681806 -0.582032,-0.978515 z m 48.646488,0.375 c -0.004,0.02216 -0.003,0.09523 0.006,0.236328 0.0169,0.277189 -0.0508,0.573561 0.0508,0.832031 0.0222,0.05638 0.13367,0.0602 0.2207,0.05859 -0.14306,-0.451083 -0.26247,-1.2208 -0.27734,-1.126953 z m -3.55664,0.802734 V 39 h 9.80468 l 0.30274,-3.001953 h -6.55469 v -2.394531 h 1.83984 c -0.88962,-0.150629 -0.77722,-0.148701 -1.05273,-0.761719 -0.0661,-0.134996 -0.0818,-0.17391 -0.125,-0.261719 -0.0321,0.0808 -0.0689,0.160932 -0.0898,0.242188 -0.096,0.372875 -0.19475,0.195538 -0.28711,-0.08984 -0.44933,0.08926 -0.96539,-0.221619 -1.38868,-0.04687 -1.26709,-0.105527 -1.47893,-0.118833 -2.44921,-0.291016 z m 5.69531,1.191407 c -0.0607,0.01645 -0.12113,0.01613 -0.18164,0.01758 h 0.18554 c -0.002,-0.0119 -0.001,-0.0046 -0.004,-0.01758 z"
         transform="translate(-54.855,-6.092)"
         id="path276" />
    </g>
    <circle
       id="circle280"
       r="22"
       fill-rule="nonzero"
       fill="#74c9e6"
       cy="22"
       cx="22" />
    <g
       id="g290"
       fill="#00b364">
      <path
         id="path282"
         d="m38 6.99235934-2.3333333 1.57906923-3.8890747-.78953461-2.3333334-.78953462-3.1109253.78953462-2.3333333-.78953462 1.5551839-3.1592704h3.1114828l3.0490524-1.54737465c2.3511705 1.18062308 4.4782608 2.77384168 6.2842809 4.70664505" />
      <path
         id="path284"
         d="m1.45900657 14.6136199c2.07359146-5.8646925 6.5790488-10.58735471 12.31036983-12.96665541l1.8738304 1.26398261 4.6425075.78060975-.7741209 2.34127007-2.3212538.78005058-2.3212537 3.9013712-3.8689411 2.3401517-5.41607382.7806098v2.3407109l1.54768733 1.5601011v3.1213207l-2.32125373-1.5606604-2.32125373-1.5606603z" />
      <path
         id="path286"
         d="m21.7142857 25.4881785-.7753249 3.8425165-3.1024114 3.0736827v2.3053997l-3.1018555 2.3053997v3.8419658l-2.3265306-.768283-1.5512057-3.8425165v-7.6844822l-3.87773629-.768283-1.55064988-3.0742334v-2.3053998l1.55064988-1.536566 2.32653061-2.3059504 1.55120568 3.0736827h5.4283862l2.3265306 3.8430672z" />
      <path
         id="path288"
         d="m39.8207613 34.8337297-1.7997169-1.7666406v-3.0753547l-1.5663317-3.0759058-1.5657705-3.0759057v-3.0759058l-2.349217-1.5374019-3.1326635.769252-5.4813193-2.3072048-.7828853-5.3820086 2.349217-2.3066538h4.6984341l1.5657705 2.3066538 4.698434.7687009 4.6989952-1.5379529.0051422-.0028506c1.7748721 3.141485 2.7858621 6.7586718 2.7858621 10.6083059 0 4.7321378-1.527646 9.1130386-4.1239509 12.6908726z" />
    </g>
    <g
       id="g296"
       transform="translate(2 2)">
      <path
         id="path292"
         opacity=".575172"
         fill-rule="nonzero"
         fill="url(#a)"
         d="m.00011883 19.9303133c.03743502 10.9367587 8.9147784 19.7914258 19.86075077 19.7914258 1.8326087 0 3.6065217-.2495652 5.2913043-.713913-.8204348.1030435-1.6578261.1995652-2.5056522.1565217-9.0834782-.4621739-18.14521735-8.26-18.42434779-19.2252174-.27879152-10.93964053 4.63486142-16.60122552 13.06279529-19.75639803.887823-.120496 1.7941589-.18273237 2.7150308-.18273237 11.045695 0 20 8.954305 20 20s-8.954305 20-20 20-20-8.954305-20-20c0-.0232374.00003963-.0464655.00011882-.0696842z" />
      <path
         id="path294"
         opacity=".101766"
         fill="#101b30"
         d="m17.3487887.28571429c-9.78246199 1.22791836-17.3487887 9.55081318-17.3487887 19.63629511 0 10.9308132 8.88844549 19.7922763 19.8535128 19.7922763 1.8319298 0 3.6051858-.2487033 5.2893443-.7114474-.8201308.1026876-1.657212.198876-2.504724.1559812-9.0801136-.4605777-18.13849611-8.2314726-18.41752315-19.1588195-.27946166-10.93211303 4.66044697-16.57516484 13.12817875-19.71428571z" />
    </g>
    <ellipse
       id="ellipse298"
       ry="9"
       rx="8.857143"
       opacity=".75"
       fill-rule="nonzero"
       fill="url(#b)"
       cy="12.142857"
       cx="30" />
    <g
       id="g310"
       transform="translate(8.36 12.491689)"
       fill="#101b30">
      <path
         id="path300"
         d="m18.7409228 13.0158544c0 2.80192-2.27128 5.0732-5.0732 5.0732-2.80148 0-5.07275996-2.27128-5.07275996-5.0732s2.27127996-.33308 5.07275996-.33308c2.80192 0 5.0732-2.46884 5.0732.33308" />
      <path
         id="path302"
         d="m6.16836284 7.62629441c0-1.89992-1.18448-3.43948-2.64616-3.43948s-2.64616 1.53956-2.64616 3.43948c0 1.89948 1.18448 3.43947999 2.64616 3.43947999s2.64616-1.53999999 2.64616-3.43947999" />
      <path
         id="path304"
         d="m26.6851228 7.62629441c0-1.89992-1.18448-3.43948-2.64616-3.43948s-2.64616 1.53956-2.64616 3.43948c0 1.89948 1.18448 3.43947999 2.64616 3.43947999s2.64616-1.53999999 2.64616-3.43947999" />
      <path
         id="path306"
         d="m.90992284 2.63141441s.67584-.17996 1.65484-.37444c1.32308-.26224 3.20012-.55088 4.71328-.45584 2.63252.16456.74756-2.58368-3.79324-1.58004-4.54124 1.0032-3.74748 2.68488-2.57488 2.41032" />
      <path
         id="path308"
         d="m25.9604428 2.63141441s-.6754-.17996-1.6544-.37444c-1.32308-.26224-3.20012-.55088-4.71328-.45584-2.63296.16456-.748-2.58368 3.79324-1.58004 4.5408 1.0032 3.74748 2.68488 2.57444 2.41032" />
    </g>
  </g>
</svg>
