<?xml version="1.0" encoding="UTF-8" standalone="no"?>
<svg
   xmlns:dc="http://purl.org/dc/elements/1.1/"
   xmlns:cc="http://creativecommons.org/ns#"
   xmlns:rdf="http://www.w3.org/1999/02/22-rdf-syntax-ns#"
   xmlns:svg="http://www.w3.org/2000/svg"
   xmlns="http://www.w3.org/2000/svg"
   xmlns:sodipodi="http://sodipodi.sourceforge.net/DTD/sodipodi-0.dtd"
   xmlns:inkscape="http://www.inkscape.org/namespaces/inkscape"
   inkscape:version="1.0 (4035a4fb49, 2020-05-01)"
   sodipodi:docname="LogoOnLight.svg"
   id="svg184"
   version="1.1"
   width="141"
   viewBox="0 0 141 50"
   height="50">
  <metadata
     id="metadata190">
    <rdf:RDF>
      <cc:Work
         rdf:about="">
        <dc:format>image/svg+xml</dc:format>
        <dc:type
           rdf:resource="http://purl.org/dc/dcmitype/StillImage" />
      </cc:Work>
    </rdf:RDF>
  </metadata>
  <defs
     id="defs188" />
  <sodipodi:namedview
     inkscape:current-layer="svg184"
     inkscape:window-maximized="0"
     inkscape:window-y="0"
     inkscape:window-x="0"
     inkscape:cy="24.766556"
     inkscape:cx="70.5"
     inkscape:zoom="8.5673759"
     showgrid="false"
     id="namedview186"
     inkscape:window-height="829"
     inkscape:window-width="1494"
     inkscape:pageshadow="2"
     inkscape:pageopacity="0"
     guidetolerance="10"
     gridtolerance="10"
     objecttolerance="10"
     borderopacity="1"
     bordercolor="#666666"
     pagecolor="#ffffff" />
  <linearGradient
     y2="65.534668%"
     y1="7.080078%"
     x2="26.123047%"
     x1="113.842773%"
     id="a">
    <stop
       id="stop130"
       stop-color="#fff"
       offset="0" />
    <stop
       id="stop132"
       stop-opacity="0"
       stop-color="#fff"
       offset="1" />
  </linearGradient>
  <radialGradient
     r="50.806452%"
     gradientTransform="matrix(0 .984127 -1 0 1 .007936)"
     cy="50%"
     cx="50%"
     id="b">
    <stop
       id="stop135"
       stop-color="#eee"
       offset="0" />
    <stop
       id="stop137"
       stop-opacity="0"
       stop-color="#fff"
       offset="1" />
  </radialGradient>
  <g
     id="g182"
     fill-rule="evenodd"
     fill="none">
    <circle
       id="circle140"
       r="25"
       fill-rule="nonzero"
       fill="#16243e"
       cy="25"
       cx="25" />
    <g
       id="g174"
       transform="translate(3 3)">
      <circle
         id="circle142"
         r="22"
         fill-rule="nonzero"
         fill="#74c9e6"
         cy="22"
         cx="22" />
      <g
         id="g152"
         fill="#00b364">
        <path
           id="path144"
           d="m38 6.99235934-2.3333333 1.57906923-3.8890747-.78953461-2.3333334-.78953462-3.1109253.78953462-2.3333333-.78953462 1.5551839-3.1592704h3.1114828l3.0490524-1.54737465c2.3511705 1.18062308 4.4782608 2.77384168 6.2842809 4.70664505" />
        <path
           id="path146"
           d="m1.45900657 14.6136199c2.07359146-5.8646925 6.5790488-10.58735471 12.31036983-12.96665541l1.8738304 1.26398261 4.6425075.78060975-.7741209 2.34127007-2.3212538.78005058-2.3212537 3.9013712-3.8689411 2.3401517-5.41607382.7806098v2.3407109l1.54768733 1.5601011v3.1213207l-2.32125373-1.5606604-2.32125373-1.5606603z" />
        <path
           id="path148"
           d="m21.7142857 25.4881785-.7753249 3.8425165-3.1024114 3.0736827v2.3053997l-3.1018555 2.3053997v3.8419658l-2.3265306-.768283-1.5512057-3.8425165v-7.6844822l-3.87773629-.768283-1.55064988-3.0742334v-2.3053998l1.55064988-1.536566 2.32653061-2.3059504 1.55120568 3.0736827h5.4283862l2.3265306 3.8430672z" />
        <path
           id="path150"
           d="m39.8207613 34.8337297-1.7997169-1.7666406v-3.0753547l-1.5663317-3.0759058-1.5657705-3.0759057v-3.0759058l-2.349217-1.5374019-3.1326635.769252-5.4813193-2.3072048-.7828853-5.3820086 2.349217-2.3066538h4.6984341l1.5657705 2.3066538 4.698434.7687009 4.6989952-1.5379529.0051422-.0028506c1.7748721 3.141485 2.7858621 6.7586718 2.7858621 10.6083059 0 4.7321378-1.527646 9.1130386-4.1239509 12.6908726z" />
      </g>
      <g
         id="g158"
         transform="translate(2 2)">
        <path
           id="path154"
           opacity=".575172"
           fill-rule="nonzero"
           fill="url(#a)"
           d="m.00011883 19.9303133c.03743502 10.9367587 8.9147784 19.7914258 19.86075077 19.7914258 1.8326087 0 3.6065217-.2495652 5.2913043-.713913-.8204348.1030435-1.6578261.1995652-2.5056522.1565217-9.0834782-.4621739-18.14521735-8.26-18.42434779-19.2252174-.27879152-10.93964053 4.63486142-16.60122552 13.06279529-19.75639803.887823-.120496 1.7941589-.18273237 2.7150308-.18273237 11.045695 0 20 8.954305 20 20s-8.954305 20-20 20-20-8.954305-20-20c0-.0232374.00003963-.0464655.00011882-.0696842z" />
        <path
           id="path156"
           opacity=".101766"
           fill="#101b30"
           d="m17.3487887.28571429c-9.78246199 1.22791836-17.3487887 9.55081318-17.3487887 19.63629511 0 10.9308132 8.88844549 19.7922763 19.8535128 19.7922763 1.8319298 0 3.6051858-.2487033 5.2893443-.7114474-.8201308.1026876-1.657212.198876-2.504724.1559812-9.0801136-.4605777-18.13849611-8.2314726-18.41752315-19.1588195-.27946166-10.93211303 4.66044697-16.57516484 13.12817875-19.71428571z" />
      </g>
      <ellipse
         id="ellipse160"
         ry="9"
         rx="8.857143"
         opacity=".75"
         fill-rule="nonzero"
         fill="url(#b)"
         cy="12.142857"
         cx="30" />
      <g
         id="g172"
         transform="translate(8.36 12.491689)"
         fill="#101b30">
        <path
           id="path162"
           d="m18.7409228 13.0158544c0 2.80192-2.27128 5.0732-5.0732 5.0732-2.80148 0-5.07275996-2.27128-5.07275996-5.0732s2.27127996-.33308 5.07275996-.33308c2.80192 0 5.0732-2.46884 5.0732.33308" />
        <path
           id="path164"
           d="m6.16836284 7.62629441c0-1.89992-1.18448-3.43948-2.64616-3.43948s-2.64616 1.53956-2.64616 3.43948c0 1.89948 1.18448 3.43947999 2.64616 3.43947999s2.64616-1.53999999 2.64616-3.43947999" />
        <path
           id="path166"
           d="m26.6851228 7.62629441c0-1.89992-1.18448-3.43948-2.64616-3.43948s-2.64616 1.53956-2.64616 3.43948c0 1.89948 1.18448 3.43947999 2.64616 3.43947999s2.64616-1.53999999 2.64616-3.43947999" />
        <path
           id="path168"
           d="m.90992284 2.63141441s.67584-.17996 1.65484-.37444c1.32308-.26224 3.20012-.55088 4.71328-.45584 2.63252.16456.74756-2.58368-3.79324-1.58004-4.54124 1.0032-3.74748 2.68488-2.57488 2.41032" />
        <path
           id="path170"
           d="m25.9604428 2.63141441s-.6754-.17996-1.6544-.37444c-1.32308-.26224-3.20012-.55088-4.71328-.45584-2.63296.16456-.748-2.58368 3.79324-1.58004 4.5408 1.0032 3.74748 2.68488 2.57444 2.41032" />
      </g>
    </g>
    <g
       id="g180"
       transform="translate(56.855 9.092)"
       fill-rule="nonzero">
      <path
         d="m 63.429688,9.0917969 c -1.102006,0 -2.061903,0.1765815 -2.878907,0.53125 -0.817004,0.3546684 -1.501731,0.8490851 -2.052734,1.4824221 -0.551003,0.633336 -0.96204,1.391146 -1.234375,2.271484 -0.272335,0.880338 -0.408203,1.85201 -0.408203,2.916016 0,1.038672 0.132436,1.991704 0.398437,2.859375 0.266002,0.867671 0.665263,1.611752 1.197266,2.232422 0.532003,0.620669 1.203001,1.101357 2.013672,1.443359 0.81067,0.342002 1.767135,0.513672 2.86914,0.513672 0.975339,0 1.829783,-0.135869 2.564454,-0.408203 0.73467,-0.272335 1.349747,-0.646092 1.84375,-1.121094 0.494002,-0.475002 0.874623,-1.035637 1.140624,-1.681641 0.266002,-0.646003 0.423943,-1.342506 0.47461,-2.089843 h -3.72461 c -0.19,1.444007 -0.94929,2.166015 -2.279296,2.166015 -0.392669,0 -0.751218,-0.06965 -1.074219,-0.208984 -0.323002,-0.139334 -0.601603,-0.366926 -0.835938,-0.683594 -0.234334,-0.316668 -0.414348,-0.731138 -0.541015,-1.244141 -0.126668,-0.513002 -0.189453,-1.138376 -0.189453,-1.873046 0,-2.647347 0.86622,-3.970704 2.601562,-3.970704 0.354669,0 0.658775,0.05444 0.912109,0.16211 0.253335,0.107667 0.465718,0.253832 0.636719,0.4375 0.171001,0.183667 0.30687,0.400962 0.408203,0.654297 0.101334,0.253334 0.184714,0.527024 0.248047,0.818359 l 3.628907,-0.417969 C 68.895103,12.348185 68.295234,11.165608 67.351562,10.335938 66.407891,9.5062667 65.101696,9.0917969 63.429688,9.0917969 Z m 7.65625,0.3417969 v 6.1503902 c 0.842885,0.399003 1.699067,0.770075 2.544921,1.160157 0.303745,0.140077 0.706942,0.311436 1.103516,0.505859 V 9.4335938 Z m 11.324218,0 V 23 h 3.646485 V 9.4335938 Z m 6.154297,0 V 23 h 3.363281 V 15.494141 L 94.341797,23 h 2.660156 l 2.412109,-7.466797 V 23 h 3.439458 V 9.4335938 h -4.218754 l -2.925782,9.0820312 -2.90625,-9.0820312 z m 20.539067,0 L 104.39258,23 h 3.66601 l 0.75977,-2.603516 h 4.58008 L 114.17578,23 h 3.78125 L 113.24609,9.4335938 Z m 7.67578,0 V 12.53125 h 3.91406 V 23 h 3.64844 V 12.53125 h 3.91406 V 9.4335938 Z m 13.16601,0 V 23 H 139.75 l 0.30469,-3.001953 H 133.5 v -2.394531 h 5.77539 V 14.601562 H 133.5 v -2.166015 h 6.1543 V 9.4335938 Z m -18.82812,3.3828122 1.38672,4.673828 h -2.79297 z M 71.085938,16.859375 V 23 h 9.328124 l 0.324219,-3.097656 h -6.003906 v -1.310547 c -0.06329,-0.0462 -0.124701,-0.09554 -0.193359,-0.132813 -0.451162,-0.244928 -0.928357,-0.437361 -1.394532,-0.652343 -0.467919,-0.215787 -1.290192,-0.594118 -2.060546,-0.947266 z"
         transform="translate(-56.855,-9.092)"
         id="path176" />
      <path
         d="m 63.429688,28.091797 c -1.102006,0 -2.061903,0.176581 -2.878907,0.53125 -0.817004,0.354668 -1.501731,0.849085 -2.052734,1.482422 -0.551003,0.633336 -0.96204,1.391146 -1.234375,2.271484 -0.272335,0.880338 -0.408203,1.85201 -0.408203,2.916016 0,1.038672 0.132436,1.991704 0.398437,2.859375 0.266002,0.867671 0.665263,1.611752 1.197266,2.232422 0.532003,0.620669 1.203001,1.101357 2.013672,1.443359 0.81067,0.342002 1.767135,0.513672 2.86914,0.513672 0.975339,0 1.829783,-0.135869 2.564454,-0.408203 0.73467,-0.272335 1.349747,-0.646092 1.84375,-1.121094 0.494002,-0.475002 0.874623,-1.035637 1.140624,-1.681641 0.266002,-0.646003 0.423943,-1.342506 0.47461,-2.089843 h -3.72461 c -0.19,1.444007 -0.94929,2.166015 -2.279296,2.166015 -0.392669,0 -0.751218,-0.06965 -1.074219,-0.208984 -0.323002,-0.139334 -0.601603,-0.366926 -0.835938,-0.683594 -0.234334,-0.316668 -0.414348,-0.731138 -0.541015,-1.244141 -0.126668,-0.513002 -0.189453,-1.138376 -0.189453,-1.873046 0,-2.647347 0.86622,-3.970704 2.601562,-3.970704 0.354669,10e-7 0.658775,0.05444 0.912109,0.16211 0.253335,0.107667 0.465718,0.253832 0.636719,0.4375 0.171001,0.183667 0.30687,0.400962 0.408203,0.654297 0.101334,0.253334 0.184714,0.527024 0.248047,0.818359 l 3.628907,-0.417969 c -0.07436,-0.449871 -0.188433,-0.860697 -0.322266,-1.25 h -0.601563 c -1.155488,0 -1.155488,-1.166015 0,-1.166015 h 0.04687 c -0.260651,-0.422508 -0.557376,-0.810158 -0.919922,-1.128906 -0.943671,-0.829671 -2.249866,-1.244141 -3.921874,-1.244141 z m 28.099609,0 c -1.076672,0 -2.033137,0.168238 -2.869141,0.503906 -0.836004,0.335668 -1.539372,0.812924 -2.109375,1.433594 -0.126598,0.137852 -0.244258,0.284574 -0.357422,0.435547 h 2.435547 8.203125 c -0.122218,-0.165728 -0.251914,-0.323036 -0.390625,-0.472656 -0.563669,-0.608004 -1.25674,-1.076915 -2.080078,-1.40625 -0.823337,-0.329336 -1.768026,-0.494141 -2.832031,-0.494141 z m 20.880863,0 c -1.10201,0 -2.06191,0.176581 -2.87891,0.53125 -0.817,0.354668 -1.50173,0.849085 -2.05273,1.482422 -0.0967,0.111148 -0.18337,0.230854 -0.27149,0.349609 0.14381,6.3e-5 0.2882,-0.01054 0.43164,-0.0059 1.20723,0.03937 2.40404,0.231732 3.58594,0.492187 0.37425,0.08247 0.74178,0.194491 1.11328,0.289063 0.33502,0.0045 0.62683,0.05522 0.86914,0.158203 0.0289,0.0123 0.0522,0.02967 0.0801,0.04297 0.4726,0.09573 0.96078,0.197166 1.24805,0.253906 0.23261,0.02153 0.46382,0.05751 0.69726,0.06641 0.0404,0.0015 0.0807,-0.005 0.1211,-0.0078 0.0541,-0.03182 0.10384,-0.03689 0.14843,-0.01172 0.0319,-0.0031 0.0638,-0.0042 0.0957,-0.0059 0.26505,-0.01398 0.19946,0.0543 0.11132,0.242188 0.45449,0.584355 0.31695,0.836078 -0.041,0.916016 0.002,0.0057 0.002,0.0099 0.004,0.01563 0.0433,0.127643 0.28004,-0.06492 0.36914,-0.166016 0.0849,-0.09621 0.069,-0.245611 0.10351,-0.369141 0.73727,0.09946 0.99511,0.179761 1.43164,0.580078 l 0.55274,-0.06445 c -0.25334,-1.532674 -0.85125,-2.715251 -1.79493,-3.544921 -0.94367,-0.829671 -2.25182,-1.244141 -3.92382,-1.244141 z m -41.324222,0.341797 v 2.03125 h 3.648437 v -2.03125 z m 8.05664,0 v 2.03125 h 3.646484 v -2.03125 z m 21.031252,0 v 2.03125 h 3.64844 v -2.03125 z m 19.89258,0 V 42 h 9.80468 l 0.30274,-3.001953 h -6.55469 v -2.394531 h 5.77539 v -3.001954 h -5.77539 v -2.166015 h 6.15625 v -3.001953 z m -12.48243,3.179687 c -0.351,-0.01106 -0.70359,-0.0037 -1.05664,0.01563 -0.10543,0.239628 -0.20233,0.486639 -0.2832,0.748047 -0.27233,0.880338 -0.4082,1.85201 -0.4082,2.916016 0,1.038672 0.13243,1.991704 0.39844,2.859375 0.266,0.867671 0.66526,1.611752 1.19726,2.232422 0.532,0.620669 1.203,1.101357 2.01367,1.443359 0.81067,0.342002 1.76714,0.513672 2.86914,0.513672 0.97534,0 1.82979,-0.135869 2.56446,-0.408203 0.73467,-0.272335 1.34974,-0.646092 1.84375,-1.121094 0.494,-0.475002 0.87462,-1.035637 1.14062,-1.681641 0.266,-0.646003 0.42394,-1.342506 0.47461,-2.089843 h -3.72461 c -0.19,1.444007 -0.94929,2.166015 -2.2793,2.166015 -0.39266,0 -0.75121,-0.06965 -1.07421,-0.208984 -0.32301,-0.139334 -0.60161,-0.366926 -0.83594,-0.683594 -0.23434,-0.316668 -0.41435,-0.731138 -0.54102,-1.244141 -0.12666,-0.513002 -0.18945,-1.138376 -0.18945,-1.873046 0,-1.496341 0.2874,-2.552556 0.8418,-3.203125 -0.97537,-0.199502 -1.95845,-0.34958 -2.95118,-0.38086 z m -36.498042,0.01758 V 42 h 3.648437 v -5.357422 h 4.408203 V 42 h 3.646484 V 31.630859 h -3.646484 v 1.72461 h -4.408203 v -1.72461 z m 14.421874,0 c -0.09503,0.211238 -0.180941,0.431178 -0.257812,0.660157 -0.297668,0.886671 -0.447266,1.880416 -0.447266,2.982422 0,1.089338 0.146166,2.071308 0.4375,2.945312 0.291335,0.874004 0.719534,1.614653 1.283204,2.222656 0.563669,0.608003 1.25674,1.076915 2.080078,1.40625 0.823337,0.329335 1.766072,0.494141 2.830078,0.494141 1.076672,0 2.033136,-0.168238 2.86914,-0.503906 0.836004,-0.335669 1.539372,-0.812924 2.109375,-1.433594 0.570003,-0.62067 1.003113,-1.375048 1.300782,-2.261719 0.297668,-0.886671 0.447265,-1.880416 0.447265,-2.982422 0,-1.089339 -0.146165,-2.071308 -0.4375,-2.945312 -0.06744,-0.202332 -0.144524,-0.39591 -0.226562,-0.583985 h -4.494141 c 0.254369,0.159964 0.482662,0.354484 0.664063,0.613282 0.475002,0.67767 0.71289,1.667983 0.71289,2.972656 0,1.304673 -0.237888,2.296939 -0.71289,2.974609 -0.475003,0.67767 -1.19849,1.015625 -2.173828,1.015625 -0.975339,0 -1.704212,-0.337955 -2.185547,-1.015625 -0.481336,-0.67767 -0.722657,-1.669936 -0.722657,-2.974609 0,-1.304673 0.241321,-2.294986 0.722657,-2.972656 0.1838,-0.258772 0.414091,-0.453324 0.669921,-0.613282 h -1.347656 z m 14.666018,0 V 42 h 3.64844 V 31.630859 Z m 14.18555,1.207032 c 0.0478,0.152113 0.10493,0.296754 0.14062,0.460937 l 0.99023,-0.113281 c -0.11813,-0.08843 -0.23344,-0.182018 -0.35351,-0.267578 -0.33037,-0.01521 -0.63479,-0.06441 -0.77734,-0.08008 z"
         transform="translate(-56.855,-9.092)"
         id="path178" />
    </g>
  </g>
</svg>
